<?xml version="1.0" encoding="UTF-8" standalone="no"?>
<!DOCTYPE svg PUBLIC "-//W3C//DTD SVG 1.1//EN" "http://www.w3.org/Graphics/SVG/1.1/DTD/svg11.dtd">
<svg width="100%" height="100%" viewBox="0 0 66 66" version="1.1" xmlns="http://www.w3.org/2000/svg" xmlns:xlink="http://www.w3.org/1999/xlink" xml:space="preserve" xmlns:serif="http://www.serif.com/" style="fill-rule:evenodd;clip-rule:evenodd;">
    <g transform="matrix(0.644614,0,0,0.644614,11.7277,11.7277)">
        <path d="M33,1C50.673,1 65,15.327 65,33C65,50.673 50.673,65 33,65C15.327,65 1,50.673 1,33C1,15.327 15.327,1 33,1ZM33,19.963C25.8,19.963 19.963,25.8 19.963,33C19.963,40.2 25.8,46.037 33,46.037C40.2,46.037 46.037,40.2 46.037,33C46.037,25.8 40.2,19.963 33,19.963Z" style="fill:rgb(31,54,65);fill-rule:nonzero;stroke:rgb(242,177,55);stroke-width:2px;"/>
    </g>
</svg>
