<?xml version="1.0" encoding="UTF-8" standalone="no"?>
<!DOCTYPE svg PUBLIC "-//W3C//DTD SVG 1.1//EN" "http://www.w3.org/Graphics/SVG/1.1/DTD/svg11.dtd">
<svg width="100%" height="100%" viewBox="0 0 64 64" version="1.1" xmlns="http://www.w3.org/2000/svg" xmlns:xlink="http://www.w3.org/1999/xlink" xml:space="preserve" xmlns:serif="http://www.serif.com/" style="fill-rule:evenodd;clip-rule:evenodd;">
    <g transform="matrix(0.671104,0,0,0.671104,10.5247,10.5247)">
        <path d="M51.12,1.269C51.631,1.269 52.143,1.464 52.534,1.855L62.145,11.466C62.536,11.857 62.731,12.369 62.731,12.881C62.731,13.393 62.536,13.904 62.145,14.295L44.441,32L62.145,49.705C62.536,50.095 62.731,50.607 62.731,51.119C62.731,51.631 62.536,52.143 62.145,52.534L52.534,62.145C52.143,62.536 51.631,62.731 51.119,62.731C50.589,62.732 50.079,62.521 49.705,62.145L32,44.441L14.295,62.145C13.905,62.536 13.393,62.731 12.881,62.731C12.35,62.732 11.841,62.521 11.466,62.145L1.855,52.534C1.479,52.159 1.268,51.65 1.269,51.119C1.269,50.607 1.464,50.096 1.855,49.705L19.559,32L1.855,14.295C1.479,13.921 1.268,13.411 1.269,12.881C1.269,12.369 1.464,11.857 1.855,11.466L11.466,1.855C11.857,1.464 12.369,1.269 12.881,1.269C13.393,1.269 13.904,1.464 14.295,1.855L32,19.559L49.705,1.855C50.095,1.464 50.607,1.269 51.119,1.269L51.12,1.269Z" style="fill:rgb(31,54,65);fill-rule:nonzero;stroke:rgb(49,195,189);stroke-width:2px;"/>
    </g>
</svg>
