<?xml version="1.0" encoding="UTF-8" standalone="no"?>
<!DOCTYPE svg PUBLIC "-//W3C//DTD SVG 1.1//EN" "http://www.w3.org/Graphics/SVG/1.1/DTD/svg11.dtd">
<svg width="100%" height="100%" viewBox="0 0 64 64" version="1.1" xmlns="http://www.w3.org/2000/svg" xmlns:xlink="http://www.w3.org/1999/xlink" xml:space="preserve" xmlns:serif="http://www.serif.com/" style="fill-rule:evenodd;clip-rule:evenodd;stroke-linejoin:round;stroke-miterlimit:2;">
    <path d="M15.002,1.147L32,18.145L48.998,1.147C49.56,0.584 50.324,0.268 51.12,0.268C51.915,0.268 52.679,0.584 53.241,1.147L62.853,10.759C63.416,11.321 63.732,12.085 63.732,12.881C63.732,13.676 63.416,14.44 62.853,15.002L45.855,32L62.853,48.998C63.416,49.56 63.732,50.324 63.732,51.12C63.732,51.915 63.416,52.679 62.853,53.241L53.241,62.853C52.679,63.416 51.915,63.732 51.119,63.732C50.324,63.732 49.56,63.416 48.998,62.853L32,45.855L15.002,62.853C14.44,63.416 13.676,63.732 12.881,63.732C12.085,63.732 11.321,63.416 10.759,62.853L1.147,53.24C0.584,52.678 0.268,51.914 0.268,51.118C0.268,50.323 0.584,49.559 1.147,48.997L18.145,32L1.147,15.002C0.584,14.44 0.268,13.676 0.268,12.881C0.268,12.085 0.584,11.321 1.147,10.759L10.759,1.147C11.321,0.584 12.085,0.268 12.881,0.268C13.676,0.268 14.44,0.584 15.002,1.147Z" style="fill:rgb(168,191,201);"/>
</svg>
